<svg width="67" height="67" viewBox="0 0 67 67" fill="none" xmlns="http://www.w3.org/2000/svg">
<path fill-rule="evenodd" clip-rule="evenodd" d="M19.8196 27.0097L15.1996 31.6297L30.0496 46.4797L63.0496 13.4797L58.4296 8.85966L30.0496 37.2397L19.8196 27.0097ZM59.7496 33.2797C59.7496 47.7997 47.8696 59.6797 33.3496 59.6797C18.8296 59.6797 6.94961 47.7997 6.94961 33.2797C6.94961 18.7597 18.8296 6.87966 33.3496 6.87966C35.9896 6.87966 38.2996 7.20966 40.6096 7.86966L45.8896 2.58966C41.9296 1.26966 37.6396 0.279663 33.3496 0.279663C15.1996 0.279663 0.349609 15.1297 0.349609 33.2797C0.349609 51.4297 15.1996 66.2797 33.3496 66.2797C51.4996 66.2797 66.3496 51.4297 66.3496 33.2797H59.7496Z" fill="#B9B9B9"/>
</svg>
