<svg width="97" height="97" viewBox="0 0 97 97" fill="none" xmlns="http://www.w3.org/2000/svg">
<path d="M35.3996 46.2797C31.2329 46.2797 27.6829 44.8109 24.7496 41.8735C21.8163 38.9359 20.3496 35.4047 20.3496 31.2797C20.3496 27.0797 21.8183 23.5297 24.7558 20.6297C27.6933 17.7297 31.2246 16.2797 35.3496 16.2797C39.5496 16.2797 43.0996 17.7297 45.9996 20.6297C48.8996 23.5297 50.3496 27.063 50.3496 31.2297C50.3496 35.3963 48.8996 38.9463 45.9996 41.8797C43.0996 44.813 39.5663 46.2797 35.3996 46.2797ZM35.3496 40.2797C37.8829 40.2797 40.0163 39.3984 41.7496 37.6359C43.4829 35.8734 44.3496 33.7547 44.3496 31.2797C44.3496 28.7463 43.4829 26.613 41.7496 24.8797C40.0163 23.1463 37.8996 22.2797 35.3996 22.2797C32.8996 22.2797 30.7663 23.1463 28.9996 24.8797C27.2329 26.613 26.3496 28.7297 26.3496 31.2297C26.3496 33.7297 27.2309 35.863 28.9934 37.6297C30.7559 39.3963 32.8746 40.2797 35.3496 40.2797ZM81.1496 94.2797L67.1496 80.2797C65.6163 81.413 64.0329 82.1963 62.3996 82.6297C60.7663 83.063 59.0974 83.2797 57.3931 83.2797C52.6588 83.2797 48.6346 81.6257 45.3206 78.3179C42.0066 75.0101 40.3496 70.9934 40.3496 66.2679C40.3496 61.5424 42.0035 57.5297 45.3114 54.2297C48.6192 50.9297 52.6359 49.2797 57.3614 49.2797C62.0869 49.2797 66.0996 50.9367 69.3996 54.2507C72.6996 57.5647 74.3496 61.5888 74.3496 66.3232C74.3496 68.0275 74.1329 69.6963 73.6996 71.3297C73.2663 72.963 72.4829 74.5463 71.3496 76.0797L85.3496 90.0797L81.1496 94.2797ZM57.3496 77.2797C60.4829 77.2797 63.0996 76.2297 65.1996 74.1297C67.2996 72.0297 68.3496 69.413 68.3496 66.2797C68.3496 63.1463 67.2996 60.5297 65.1996 58.4297C63.0996 56.3297 60.4829 55.2797 57.3496 55.2797C54.2163 55.2797 51.5996 56.3297 49.4996 58.4297C47.3996 60.5297 46.3496 63.1463 46.3496 66.2797C46.3496 69.413 47.3996 72.0297 49.4996 74.1297C51.5996 76.2297 54.2163 77.2797 57.3496 77.2797ZM3.34961 80.2797V70.8797C3.34961 68.413 3.93294 66.313 5.09961 64.5797C6.26628 62.8463 7.94961 61.413 10.1496 60.2797C13.2829 58.7463 17.3663 57.2963 22.3996 55.9297C27.4329 54.563 32.5496 54.0463 37.7496 54.3797C37.2163 55.2463 36.7163 56.1963 36.2496 57.2297C35.7829 58.263 35.4163 59.2797 35.1496 60.2797C29.9496 60.213 25.4163 60.8297 21.5496 62.1297C17.6829 63.4297 14.6829 64.613 12.5496 65.6797C11.6163 66.213 10.8496 66.9297 10.2496 67.8297C9.64961 68.7297 9.34961 69.7463 9.34961 70.8797V74.2797H35.1496C35.8829 75.413 36.5496 76.463 37.1496 77.4297C37.7496 78.3963 38.4163 79.3463 39.1496 80.2797H3.34961Z" fill="#B9B9B9"/>
</svg>
