<svg width="89" height="89" viewBox="0 0 89 89" fill="none" xmlns="http://www.w3.org/2000/svg">
<path d="M15.6579 73.613V68.113H27.5746C23.6635 65.1796 20.5927 61.8643 18.3621 58.1671C16.1316 54.4699 15.0163 49.9324 15.0163 44.5546C15.0163 38.4435 16.8191 32.7449 20.4246 27.4588C24.0302 22.1727 29.1635 18.4907 35.8246 16.413V22.0963C31.4857 23.6852 27.8496 26.5268 24.9163 30.6213C21.9829 34.7157 20.5163 39.3602 20.5163 44.5546C20.5163 48.4657 21.3566 52.056 23.0371 55.3255C24.7177 58.5949 27.4524 61.4518 31.2413 63.8963V52.5296H36.7413V73.613H15.6579ZM68.0913 46.2046C68.3968 42.9046 67.801 39.3755 66.3038 35.6171C64.8066 31.8588 61.9496 28.2074 57.7329 24.663V36.0296H52.2329V14.9463H73.3163V20.4463H61.3079C66.3802 25.0296 69.7871 29.5213 71.5288 33.9213C73.2704 38.3213 73.9579 42.4157 73.5913 46.2046H68.0913ZM58.4663 80.9463C57.4274 80.9463 56.5566 80.5949 55.8538 79.8921C55.151 79.1893 54.7996 78.3185 54.7996 77.2796V66.463C54.7996 65.4241 55.151 64.5532 55.8538 63.8505C56.5566 63.1477 57.4274 62.7963 58.4663 62.7963H58.5579V59.2213C58.5579 57.0824 59.276 55.2949 60.7121 53.8588C62.1482 52.4227 63.9357 51.7046 66.0746 51.7046C68.2135 51.7046 70.001 52.4227 71.4371 53.8588C72.8732 55.2949 73.5913 57.0824 73.5913 59.2213V62.7963H73.6829C74.7218 62.7963 75.5927 63.1477 76.2954 63.8505C76.9982 64.5532 77.3496 65.4241 77.3496 66.463V77.2796C77.3496 78.3185 76.9982 79.1893 76.2954 79.8921C75.5927 80.5949 74.7218 80.9463 73.6829 80.9463H58.4663ZM62.2246 62.7963H69.9246V59.2213C69.9246 58.0602 69.5732 57.1282 68.8704 56.4255C68.1677 55.7227 67.2357 55.3713 66.0746 55.3713C64.9135 55.3713 63.9816 55.7227 63.2788 56.4255C62.576 57.1282 62.2246 58.0602 62.2246 59.2213V62.7963Z" fill="#B9B9B9"/>
</svg>
