<svg width="132.843750" height="18.152344" viewBox="0 0 132.844 18.1523" fill="none" xmlns="http://www.w3.org/2000/svg" xmlns:xlink="http://www.w3.org/1999/xlink">
	<desc>
			Created with Pixso.
	</desc>
	<defs/>
	<path id="Forest Lake" d="M118.15 16.89Q118.03 17.24 117.14 17.33Q117.09 17.51 117.09 17.6Q117.09 17.69 117.14 17.88Q118.65 17.81 119.83 17.81Q121.05 17.81 122.56 17.88Q122.61 17.74 122.61 17.64Q122.61 17.56 122.56 17.33Q121.37 17.15 120.68 16.46Q120.56 16.34 120.45 16.2L116.33 10.99L118.19 9.1Q118.69 8.59 119.3 8.35Q119.36 8.33 119.42 8.31Q120.1 8.08 121.14 7.96Q121.19 7.73 121.19 7.66Q121.19 7.55 121.14 7.41Q119.63 7.48 118.65 7.48Q117.75 7.48 116.22 7.41Q116.18 7.6 116.18 7.71Q116.18 7.78 116.22 7.96Q117.19 8.07 117.32 8.45Q117.34 8.51 117.34 8.57Q117.34 8.59 117.33 8.61Q117.32 8.86 117.11 9.1L114.75 11.35L114.14 11.35L114.11 0.31Q114.02 0.12 113.7 0Q111.98 0.75 109.75 0.96Q109.69 1.11 109.69 1.23Q109.69 1.35 109.75 1.51Q111.34 1.6 112 1.99Q112 2.73 112.02 8.88Q112.03 15.04 111.98 16.2Q111.97 16.4 111.89 16.56Q111.85 16.65 111.78 16.72Q111.59 16.94 111.22 17.06Q110.85 17.17 110.61 17.23Q110.37 17.28 109.99 17.33Q109.94 17.56 109.94 17.62Q109.94 17.69 109.99 17.88Q111.53 17.81 112.96 17.81Q114.35 17.81 115.89 17.88Q115.96 17.77 115.96 17.62Q115.96 17.57 115.96 17.51Q115.94 17.42 115.89 17.33Q115.55 17.28 115.35 17.23Q115.14 17.17 114.83 17.06Q114.52 16.94 114.36 16.72Q114.34 16.68 114.31 16.64Q114.21 16.45 114.21 16.2Q114.14 14.9 114.14 12.1L114.71 12.1L117.91 16.2Q118.17 16.52 118.17 16.78Q118.17 16.83 118.15 16.89ZM4.17 0.67Q2.03 0.67 0.07 0.6Q0.02 0.79 0.02 0.86Q0.02 0.94 0.07 1.16Q0.64 1.21 0.94 1.25Q1.25 1.3 1.75 1.41Q2.26 1.53 2.51 1.74Q2.66 1.87 2.73 2.03Q2.77 2.14 2.77 2.26Q2.89 5.01 2.89 8.81Q2.89 12.53 2.75 16.2Q2.75 16.32 2.71 16.43Q2.68 16.51 2.63 16.58Q2.5 16.74 2.26 16.86Q2.01 16.98 1.78 17.05Q1.55 17.13 1.18 17.19Q0.82 17.25 0.6 17.27Q0.39 17.29 0.04 17.33Q0 17.56 0 17.64Q0 17.74 0.04 17.88Q2.01 17.81 4.12 17.81Q6.21 17.81 8.2 17.88Q8.25 17.74 8.25 17.64Q8.25 17.56 8.2 17.33Q7.66 17.28 7.33 17.23Q6.99 17.17 6.5 17.06Q6.02 16.94 5.76 16.72Q5.59 16.58 5.53 16.4Q5.5 16.31 5.49 16.2Q5.36 12.29 5.36 9.77L8.7 9.77Q9.07 9.77 9.41 9.88Q10.24 10.15 10.86 11.08Q11.23 11.67 11.95 13.39Q12.31 13.25 12.39 13.08Q11.76 11.42 11.71 9.74Q11.7 9.57 11.7 9.41Q11.7 8.98 11.74 8.56Q11.86 7.13 12.39 5.74Q12.36 5.62 11.95 5.44Q11.85 5.64 11.66 6.08Q11.47 6.51 11.37 6.7Q11.28 6.89 11.1 7.24Q10.93 7.6 10.81 7.76Q10.69 7.93 10.5 8.18Q10.31 8.43 10.14 8.56Q9.97 8.68 9.74 8.81Q9.63 8.87 9.52 8.91Q9.39 8.96 9.25 8.99Q9 9.04 8.7 9.04L5.36 9.04Q5.36 6.45 5.51 1.39L8.49 1.39Q10.21 1.51 11.57 1.86Q12.92 2.21 13.83 2.76Q14.74 3.31 15.33 3.93Q15.93 4.55 16.35 5.35Q16.67 5.23 16.76 5.03Q16.31 4.25 16.03 3.69Q15.75 3.14 15.44 2.26Q15.14 1.39 15.04 0.58Q13.57 0.63 12.07 0.64Q10.58 0.65 8.47 0.66Q6.37 0.66 5.51 0.67L4.17 0.67ZM83.09 0.67Q81.64 0.67 79.01 0.58Q78.97 0.72 78.97 0.84Q78.97 0.92 79.01 1.13Q79.55 1.18 79.89 1.23Q80.22 1.28 80.71 1.4Q81.19 1.52 81.45 1.74Q81.62 1.88 81.68 2.05Q81.72 2.15 81.72 2.26Q81.84 5.01 81.84 8.81Q81.84 12.53 81.7 16.2Q81.69 16.31 81.66 16.4Q81.6 16.58 81.43 16.72Q81.17 16.94 80.68 17.06Q80.2 17.17 79.86 17.23Q79.53 17.28 78.99 17.33Q78.94 17.56 78.94 17.64Q78.94 17.74 78.99 17.88Q81.26 17.81 84.44 17.81L94.61 17.81Q94.71 16.99 95.02 16.09Q95.33 15.19 95.59 14.64Q95.85 14.09 96.33 13.2Q96.24 13 95.94 12.89Q95.5 13.69 94.91 14.34Q94.32 15 93.41 15.6Q92.5 16.2 91.14 16.59Q89.78 16.98 88.06 17.09L84.44 17.09Q84.31 11.44 84.31 9.67Q84.31 6.24 84.46 2.26Q84.47 2.15 84.5 2.05Q84.57 1.88 84.73 1.74Q84.99 1.52 85.48 1.4Q85.96 1.28 86.3 1.23Q86.63 1.18 87.17 1.13Q87.22 0.92 87.22 0.84Q87.22 0.77 87.17 0.58Q84.55 0.67 83.09 0.67ZM66.97 5.12Q66.82 5.12 66.7 5.16Q66.33 5.78 65.95 6.25Q65.57 6.71 65.11 7.05Q64.65 7.39 64.35 7.57Q64.05 7.75 63.49 8.03Q63.44 8.29 63.44 8.3Q63.44 8.36 63.49 8.57L64.93 8.57L64.93 14.71Q64.93 16.75 65.93 17.58Q66.61 18.15 67.76 18.15Q68.45 18.15 69.07 17.95Q69.54 17.8 69.98 17.53Q70.9 16.96 71.41 16.13Q71.46 16.06 71.5 15.98Q71.47 15.88 71.4 15.82Q71.29 15.72 71.12 15.7Q70.55 16.19 70.09 16.44Q69.63 16.68 68.98 16.68Q68.21 16.68 67.78 16.3Q67.28 15.84 67.28 14.83L67.28 8.57L70.83 8.57Q70.91 8.39 70.91 8.16Q70.91 7.91 70.83 7.73L67.28 7.73L67.28 5.16Q67.12 5.12 66.97 5.12ZM25.34 7.57Q24.41 7.16 23.25 7.16Q22.08 7.16 21.15 7.57Q20.43 7.88 19.88 8.38Q19.71 8.53 19.56 8.7Q18.91 9.43 18.56 10.44Q18.21 11.46 18.21 12.65Q18.21 13.86 18.56 14.87Q18.92 15.87 19.58 16.61Q19.79 16.84 20.03 17.05Q20.54 17.47 21.16 17.74Q22.1 18.15 23.25 18.15Q24.8 18.15 25.92 17.45Q26.47 17.11 26.91 16.61Q27.16 16.34 27.36 16.04Q28.28 14.65 28.28 12.65Q28.28 11.46 27.93 10.44Q27.58 9.43 26.92 8.7Q26.74 8.5 26.54 8.32Q26.01 7.86 25.34 7.57ZM34.58 7.2Q32.89 7.93 30.62 8.16Q30.57 8.35 30.57 8.42Q30.57 8.53 30.62 8.71Q32.2 8.78 32.87 9.19Q32.87 10.19 32.88 11.51Q32.89 12.84 32.89 13.39Q32.89 15.04 32.84 16.2Q32.84 16.4 32.76 16.56Q32.71 16.65 32.64 16.72Q32.46 16.94 32.09 17.06Q31.73 17.17 31.48 17.23Q31.24 17.28 30.85 17.33Q30.8 17.56 30.8 17.62Q30.8 17.69 30.85 17.88Q32.4 17.81 33.83 17.81Q35.55 17.81 37.31 17.88Q37.38 17.74 37.38 17.62Q37.38 17.57 37.37 17.51Q37.35 17.42 37.31 17.33Q36.87 17.28 36.6 17.23Q36.33 17.17 35.92 17.06Q35.51 16.94 35.3 16.72Q35.2 16.62 35.15 16.49Q35.09 16.36 35.08 16.2Q34.99 13.82 34.99 11.21Q35.13 10.5 35.75 9.77Q36.38 9.04 36.87 8.83Q36.9 9.32 37.14 9.65Q37.2 9.73 37.28 9.81Q37.4 9.93 37.55 10.02Q37.84 10.18 38.22 10.18Q38.64 10.18 38.96 10Q39.12 9.92 39.25 9.79Q39.33 9.72 39.4 9.63Q39.66 9.27 39.66 8.71Q39.66 8.15 39.4 7.77Q39.32 7.66 39.22 7.57Q39.12 7.47 39 7.4Q38.62 7.16 38.08 7.16Q37.97 7.16 37.86 7.17Q37.04 7.25 36.28 7.93Q35.42 8.7 34.99 9.52L34.99 7.51Q34.87 7.32 34.58 7.2ZM43.95 11.6L50.34 11.6Q50.54 10.98 50.54 10.39Q50.54 9.76 50.34 9.2Q50.31 9.11 50.28 9.03Q50.09 8.57 49.75 8.17Q49.34 7.71 48.62 7.43Q47.9 7.16 46.93 7.16Q45.83 7.16 44.9 7.55Q43.97 7.96 43.21 8.76Q42.77 9.23 42.46 9.78Q41.7 11.09 41.7 12.84Q41.7 13.94 41.98 14.85Q42.26 15.76 42.73 16.36Q43.02 16.73 43.38 17.03Q43.59 17.22 43.83 17.37Q44.47 17.78 45.14 17.97Q45.25 17.99 45.35 18.02Q45.93 18.15 46.53 18.15Q47.2 18.15 47.83 17.98Q48.55 17.78 49.2 17.37Q49.41 17.24 49.6 17.08Q50.53 16.32 51.02 15.02Q50.96 14.96 50.9 14.91Q50.76 14.8 50.56 14.76Q50.49 14.84 50.28 15.14Q50.07 15.44 49.95 15.59Q49.82 15.73 49.55 15.98Q49.28 16.23 49.03 16.35Q48.78 16.48 48.39 16.58Q48.01 16.68 47.56 16.68Q46.38 16.68 45.54 16.15Q45.21 15.93 44.92 15.63Q44.78 15.48 44.66 15.31Q43.94 14.33 43.91 12.84Q43.91 12.3 43.95 11.6ZM56.36 18.05Q56.82 18.15 57.39 18.15Q58.37 18.15 59.18 17.77Q59.7 17.54 60.14 17.15Q61.03 16.36 61.23 15.43Q61.28 15.17 61.28 14.9Q61.28 14.33 61.14 13.89Q61 13.46 60.79 13.15Q60.57 12.84 60.11 12.55Q59.66 12.25 59.2 12.04Q58.75 11.83 57.97 11.51Q56.27 10.82 55.64 10.38Q55.34 10.17 55.19 9.88Q55.01 9.56 55.01 9.15Q55.01 8.81 55.16 8.57Q55.29 8.36 55.53 8.22Q55.57 8.2 55.6 8.18Q56.09 7.92 56.73 7.92Q57.14 7.92 57.51 8.04Q57.92 8.18 58.28 8.46Q58.96 9.01 59.94 10.18Q60.25 10.18 60.39 10.03Q59.95 8.84 59.67 7.16L59.36 7.16Q59.33 7.17 59.05 7.26Q58.78 7.35 58.52 7.41Q58.48 7.4 58.13 7.31Q57.77 7.23 57.52 7.19Q57.26 7.16 56.94 7.16Q56.13 7.16 55.49 7.35Q54.85 7.54 54.47 7.84Q54.19 8.06 53.98 8.33Q53.91 8.43 53.84 8.54Q53.58 8.94 53.5 9.31Q53.43 9.57 53.42 9.84Q53.41 9.94 53.41 10.05Q53.41 10.57 53.6 11Q53.78 11.43 54.08 11.74Q54.37 12.05 54.86 12.35Q55.34 12.64 55.8 12.84Q56.26 13.04 56.91 13.27Q57.97 13.66 58.54 14.05Q59.1 14.44 59.27 14.8Q59.43 15.15 59.43 15.65Q59.43 15.83 59.39 15.99Q59.28 16.46 58.85 16.85Q58.82 16.87 58.79 16.9Q58.22 17.37 57.25 17.37Q56.6 17.37 56.09 17.15Q55.9 17.06 55.73 16.95Q55.45 16.75 55.22 16.47Q54.86 16.01 54.63 15.53Q54.41 15.05 54.19 14.37Q53.8 14.37 53.64 14.44Q53.64 15.3 53.56 16.39Q53.47 17.48 53.41 17.67Q53.47 17.78 53.62 17.88Q54.51 17.54 54.97 17.54Q55.39 17.75 55.64 17.85Q55.89 17.96 56.36 18.05ZM98.97 9.22Q98.81 9.63 98.81 10.11Q98.81 10.63 99.05 10.96Q99.13 11.06 99.22 11.15Q99.46 11.36 99.74 11.45Q99.94 11.51 100.16 11.51Q100.67 11.51 101 11.27Q101.07 11.21 101.14 11.14Q101.34 10.92 101.43 10.67Q101.49 10.48 101.49 10.27Q101.49 9.78 101.25 9.48Q100.97 9.11 100.34 9.02Q100.46 8.61 100.99 8.3Q101.53 7.99 102.31 7.99Q102.9 7.99 103.33 8.25Q103.54 8.38 103.71 8.57Q104.23 9.16 104.23 10.34L104.23 11.97Q102.45 12.43 101.4 12.79Q100.34 13.16 99.62 13.62Q98.9 14.09 98.64 14.63Q98.37 15.17 98.37 15.96Q98.37 16.21 98.43 16.47Q98.48 16.73 98.64 17.04Q98.74 17.22 98.86 17.37Q98.95 17.48 99.07 17.58Q99.32 17.82 99.79 17.98Q100.25 18.15 100.85 18.15Q101.22 18.15 101.61 18.04Q102 17.92 102.25 17.81Q102.51 17.69 102.88 17.41Q103.25 17.14 103.38 17.03Q103.52 16.92 103.87 16.59Q104.22 16.26 104.23 16.25Q104.3 17.13 104.68 17.55Q104.86 17.74 105.07 17.85Q105.33 17.97 105.65 17.97Q105.87 17.97 106.1 17.91Q106.32 17.84 106.49 17.75Q106.66 17.67 106.86 17.49Q107.07 17.32 107.19 17.19Q107.32 17.06 107.52 16.79Q107.71 16.53 107.81 16.4Q107.9 16.27 108.1 15.97Q108.3 15.66 108.38 15.55Q108.32 15.42 108.23 15.33Q108.07 15.19 107.81 15.17Q107.21 16.11 106.82 16.11Q106.66 16.11 106.55 16.03Q106.34 15.88 106.34 15.45L106.34 10.59Q106.34 8.73 105.54 7.94Q104.74 7.16 102.77 7.16Q101.51 7.16 100.51 7.67Q100.24 7.81 99.99 7.99Q99.24 8.51 98.97 9.22ZM125.77 11.6L132.16 11.6Q132.36 10.98 132.36 10.39Q132.36 9.76 132.17 9.2Q132.14 9.11 132.1 9.03Q131.91 8.57 131.57 8.17Q131.16 7.71 130.44 7.43Q129.72 7.16 128.75 7.16Q127.65 7.16 126.72 7.55Q125.79 7.96 125.03 8.76Q124.59 9.23 124.28 9.78Q123.52 11.09 123.52 12.84Q123.52 13.94 123.8 14.85Q124.09 15.76 124.55 16.36Q124.84 16.73 125.2 17.03Q125.41 17.22 125.66 17.37Q126.29 17.78 126.96 17.97Q127.07 17.99 127.17 18.02Q127.75 18.15 128.35 18.15Q129.02 18.15 129.65 17.98Q130.37 17.78 131.02 17.37Q131.23 17.24 131.42 17.08Q132.35 16.32 132.84 15.02Q132.78 14.96 132.72 14.91Q132.58 14.8 132.38 14.76Q132.31 14.84 132.1 15.14Q131.89 15.44 131.77 15.59Q131.64 15.73 131.37 15.98Q131.1 16.23 130.85 16.35Q130.6 16.48 130.21 16.58Q129.83 16.68 129.38 16.68Q128.2 16.68 127.36 16.15Q127.03 15.93 126.75 15.63Q126.6 15.48 126.48 15.31Q125.76 14.33 125.73 12.84Q125.73 12.3 125.77 11.6ZM22.44 8.07Q22.81 7.92 23.25 7.92Q23.68 7.92 24.05 8.07Q24.19 8.13 24.32 8.2Q24.8 8.49 25.14 9.08Q25.48 9.66 25.67 10.55Q25.86 11.44 25.86 12.65Q25.86 15.05 25.15 16.21Q24.7 16.95 24.06 17.22Q23.68 17.37 23.25 17.37Q22.8 17.37 22.43 17.22Q21.79 16.95 21.34 16.22Q20.63 15.07 20.63 12.65Q20.63 10.24 21.33 9.08Q21.79 8.34 22.44 8.07ZM46.43 7.93Q46.54 7.92 46.65 7.92Q47.35 7.92 47.77 8.27Q47.9 8.37 48 8.51Q48.42 9.11 48.42 10.03Q48.42 10.35 48.3 10.8L44.08 10.8Q44.4 9.35 45.12 8.63Q45.74 8.01 46.43 7.93ZM128.25 7.93Q128.36 7.92 128.47 7.92Q129.17 7.92 129.59 8.27Q129.72 8.37 129.82 8.51Q130.24 9.11 130.24 10.03Q130.24 10.35 130.12 10.8L125.9 10.8Q126.22 9.35 126.94 8.63Q127.56 8.01 128.25 7.93ZM104.23 12.72L104.23 15.17Q103.12 16.63 101.97 16.66Q101.95 16.66 101.93 16.66Q101.63 16.66 101.39 16.55Q101.22 16.46 101.08 16.33Q101.01 16.26 100.95 16.19Q100.73 15.88 100.73 15.41Q100.73 14.94 100.87 14.58Q101.01 14.22 101.38 13.88Q101.75 13.54 102.45 13.25Q103.16 12.97 104.23 12.72Z" fill="#FFFFFF" fill-opacity="1.000000" fill-rule="evenodd"/>
</svg>
