<svg width="25.000000" height="25.000000" viewBox="0 0 25 25" fill="none" xmlns="http://www.w3.org/2000/svg" xmlns:xlink="http://www.w3.org/1999/xlink">
	<desc>
			Created with Pixso.
	</desc>
	<defs>
		<clipPath id="clip26_1058">
			<rect id="Layer_2" width="25.000000" height="25.000000" fill="white" fill-opacity="0"/>
		</clipPath>
	</defs>
	<g clip-path="url(#clip26_1058)">
		<path id="path" d="M12.5 1.3C12.01 1.3 11.53 1.33 11.05 1.39C10.57 1.46 10.09 1.55 9.63 1.67C9.16 1.8 8.7 1.95 8.25 2.14C7.8 2.32 7.37 2.53 6.95 2.77C6.53 3.01 6.13 3.28 5.74 3.57C5.35 3.86 4.99 4.18 4.64 4.52C4.3 4.86 3.98 5.22 3.68 5.6C3.38 5.98 3.11 6.38 2.86 6.8C2.61 7.21 2.4 7.65 2.2 8.09C2.01 8.54 1.85 8.99 1.72 9.46C1.59 9.92 1.49 10.4 1.42 10.88C1.35 11.35 1.31 11.84 1.3 12.32C1.29 12.8 1.32 13.29 1.37 13.77C1.42 14.25 1.51 14.73 1.63 15.2C1.74 15.67 1.89 16.13 2.06 16.58C2.24 17.03 2.44 17.47 2.68 17.89L1.3 23.69L7.1 22.31C7.85 22.72 8.63 23.04 9.45 23.27C10.28 23.51 11.11 23.64 11.97 23.68C12.82 23.72 13.66 23.66 14.5 23.51C15.34 23.36 16.15 23.11 16.94 22.77C17.72 22.43 18.45 22.01 19.14 21.5C19.83 20.99 20.45 20.41 21 19.77C21.56 19.12 22.03 18.41 22.42 17.66C22.82 16.9 23.12 16.11 23.33 15.28C23.54 14.45 23.66 13.61 23.68 12.76C23.7 11.91 23.62 11.06 23.45 10.23C23.28 9.39 23.01 8.59 22.66 7.81C22.3 7.04 21.86 6.31 21.34 5.64C20.81 4.96 20.22 4.35 19.56 3.82C18.9 3.28 18.18 2.82 17.42 2.44C16.65 2.07 15.85 1.78 15.02 1.59C14.19 1.39 13.35 1.3 12.5 1.3ZM6.9 6.39L9.95 6.39C10.3 6.39 10.47 6.56 10.47 6.91C10.45 7.61 10.57 8.29 10.81 8.94C10.92 9.17 10.94 9.4 10.88 9.64C10.81 9.88 10.68 10.07 10.47 10.21L9.4 11.26C9.88 12.19 10.49 13.02 11.23 13.75C11.96 14.51 12.79 15.13 13.72 15.62L14.76 14.55C15.28 14.03 15.52 14.03 16.03 14.21C16.69 14.46 17.37 14.57 18.07 14.55C18.4 14.57 18.57 14.74 18.59 15.07L18.59 18.13C18.57 18.46 18.4 18.63 18.07 18.65C14.89 18.51 12.18 17.32 9.92 15.08C7.68 12.83 6.49 10.11 6.36 6.94C6.36 6.58 6.54 6.4 6.9 6.39Z" fill="#FFFFFF" fill-opacity="0" fill-rule="nonzero"/>
		<path id="path" d="M11.05 1.39C10.57 1.46 10.09 1.55 9.63 1.67C9.16 1.8 8.7 1.95 8.25 2.14C7.8 2.32 7.37 2.53 6.95 2.77C6.53 3.01 6.13 3.28 5.74 3.57C5.35 3.86 4.99 4.18 4.64 4.52C4.3 4.86 3.98 5.22 3.68 5.6C3.38 5.98 3.11 6.38 2.86 6.8C2.61 7.21 2.4 7.65 2.2 8.09C2.01 8.54 1.85 8.99 1.72 9.46C1.59 9.92 1.49 10.4 1.42 10.88C1.35 11.35 1.31 11.84 1.3 12.32C1.29 12.8 1.32 13.29 1.37 13.77C1.42 14.25 1.51 14.73 1.63 15.2C1.74 15.67 1.89 16.13 2.06 16.58C2.24 17.03 2.44 17.47 2.68 17.89L1.3 23.69L7.1 22.31C7.85 22.72 8.63 23.04 9.45 23.27C10.28 23.51 11.11 23.64 11.97 23.68C12.82 23.72 13.66 23.66 14.5 23.51C15.34 23.36 16.15 23.11 16.94 22.77C17.72 22.43 18.45 22.01 19.14 21.5C19.83 20.99 20.45 20.41 21 19.77C21.56 19.12 22.03 18.41 22.42 17.66C22.82 16.9 23.12 16.11 23.33 15.28C23.54 14.45 23.66 13.61 23.68 12.76C23.7 11.91 23.62 11.06 23.45 10.23C23.28 9.39 23.01 8.59 22.66 7.81C22.3 7.04 21.86 6.31 21.34 5.64C20.81 4.96 20.22 4.35 19.56 3.82C18.9 3.28 18.18 2.82 17.42 2.44C16.65 2.07 15.85 1.78 15.02 1.59C14.19 1.39 13.35 1.3 12.5 1.3C12.01 1.3 11.53 1.33 11.05 1.39ZM9.95 6.39C10.3 6.39 10.47 6.56 10.47 6.91C10.45 7.61 10.57 8.29 10.81 8.94C10.92 9.17 10.94 9.4 10.88 9.64C10.81 9.88 10.68 10.07 10.47 10.21L9.4 11.26C9.88 12.19 10.49 13.02 11.23 13.75C11.96 14.51 12.79 15.13 13.72 15.62L14.76 14.55C15.28 14.03 15.52 14.03 16.03 14.21C16.69 14.46 17.37 14.57 18.07 14.55C18.4 14.57 18.57 14.74 18.59 15.07L18.59 18.13C18.57 18.46 18.4 18.63 18.07 18.65C14.89 18.51 12.18 17.32 9.92 15.08C7.68 12.83 6.49 10.11 6.36 6.94C6.36 6.58 6.54 6.4 6.9 6.39L9.95 6.39Z" stroke="#FFFFFF" stroke-opacity="1.000000" stroke-width="1.000000" stroke-linejoin="round"/>
	</g>
</svg>
