<svg width="274" height="51" viewBox="0 0 274 51" fill="none" xmlns="http://www.w3.org/2000/svg">
<g clip-path="url(#clip0_76_1137)">
<mask id="mask0_76_1137" style="mask-type:luminance" maskUnits="userSpaceOnUse" x="-1" y="-1" width="70" height="53">
<path d="M68.9213 -0.000732422H-0.00140381V51.0001H68.9213V-0.000732422Z" fill="black"/>
<path d="M61.7118 0.424561H7.21264C3.46362 0.424561 0.424011 3.4703 0.424011 7.22688V43.7757C0.424011 47.5323 3.46362 50.578 7.21264 50.578H61.7126C65.4616 50.578 68.5012 47.5323 68.5012 43.7757V7.22688C68.5004 3.46945 65.4608 0.424561 61.7118 0.424561ZM61.7118 43.7757H7.21264V7.22688H61.7126L61.7118 43.7757Z" fill="white"/>
<path d="M23.9627 39.6127C24.488 39.9162 25.0735 40.0684 25.6599 40.0684C26.2454 40.0684 26.8318 39.9162 27.357 39.6127L46.6588 28.4467C47.7094 27.8396 48.356 26.7163 48.356 25.5013C48.356 24.2862 47.7094 23.163 46.6588 22.5559L27.357 11.3899C26.3073 10.7819 25.0124 10.7819 23.9627 11.3899C22.9122 11.997 22.2656 13.1202 22.2656 14.3353V36.6673C22.2656 37.8823 22.9122 39.0056 23.9627 39.6127ZM29.0542 20.2261L38.173 25.5013L29.0542 30.7765V20.2261Z" fill="white"/>
</mask>
<g mask="url(#mask0_76_1137)">
<path d="M68.9213 -0.000732422H-0.00140381V51.0001H68.9213V-0.000732422Z" fill="white"/>
</g>
<mask id="mask1_76_1137" style="mask-type:luminance" maskUnits="userSpaceOnUse" x="82" y="3" width="192" height="25">
<path d="M273.145 3.57465H82.8165V27.1125H273.145V3.57465Z" fill="black"/>
<path d="M85.6767 18.8784L84.7741 24.0274C86.8574 24.9666 90.7806 25.5232 92.9683 24.8623C94.0096 24.5493 94.9125 23.9926 95.7458 23.1577C97.0652 21.8704 97.7248 20.3047 97.7248 18.4956C97.7248 15.8865 96.0582 13.8337 92.7946 12.4074C91.5792 11.9203 90.6766 11.5374 90.0517 11.2939C89.5656 11.0854 89.3225 10.7373 89.3225 10.2852C89.3225 9.58925 89.774 9.24142 90.6766 9.24142C92.1347 9.24142 93.5238 9.90232 94.8779 11.1896L95.7111 6.42325C93.2807 5.65811 89.0794 4.82288 86.7184 6.59731C85.5033 7.50176 84.8782 8.85857 84.8782 10.5982C84.8782 12.2681 85.5033 13.5902 86.7184 14.5644C87.3782 15.0513 88.6627 15.7472 90.6766 16.6169C92.4125 17.3823 93.2807 18.2173 93.2807 19.122C93.2807 20.3743 92.3778 21.0007 90.5725 21.0007C88.8017 21.0007 87.1698 20.27 85.6767 18.8784ZM111.058 25.0364L111.856 20.5136L110.259 21.2439H105.12V17.2433H108.419L110.051 17.7301V13.9033L108.453 14.4599H105.12V9.41548H109.564L111.613 10.1111V5.65811H99.8081L100.537 7.71056V23.0184L99.8427 25.0364H111.058ZM115.189 18.8784L114.286 24.0274C116.37 24.9666 120.293 25.5232 122.48 24.8623C123.522 24.5493 124.425 23.9926 125.258 23.1577C126.578 21.8704 127.237 20.3047 127.237 18.4956C127.237 15.8865 125.571 13.8337 122.307 12.4074C121.092 11.9203 120.189 11.5374 119.564 11.2939C119.078 11.0854 118.835 10.7373 118.835 10.2852C118.835 9.58925 119.286 9.24142 120.189 9.24142C121.647 9.24142 123.036 9.90232 124.39 11.1896L125.224 6.42325C122.793 5.65811 118.592 4.82288 116.231 6.59731C115.016 7.50176 114.391 8.85857 114.391 10.5982C114.391 12.2681 115.016 13.5902 116.231 14.5644C116.891 15.0513 118.175 15.7472 120.189 16.6169C121.925 17.3823 122.793 18.2173 122.793 19.122C122.793 20.3743 121.89 21.0007 120.085 21.0007C118.314 21.0007 116.682 20.27 115.189 18.8784ZM130.119 18.8784L129.216 24.0274C131.299 24.9666 135.223 25.5232 137.41 24.8623C138.452 24.5493 139.355 23.9926 140.188 23.1577C141.507 21.8704 142.167 20.3047 142.167 18.4956C142.167 15.8865 140.5 13.8337 137.237 12.4074C136.022 11.9203 135.119 11.5374 134.494 11.2939C134.008 11.0854 133.765 10.7373 133.765 10.2852C133.765 9.58925 134.216 9.24142 135.119 9.24142C136.577 9.24142 137.966 9.90232 139.32 11.1896L140.153 6.42325C137.723 5.65811 133.521 4.82288 131.161 6.59731C129.945 7.50176 129.32 8.85857 129.32 10.5982C129.32 12.2681 129.945 13.5902 131.161 14.5644C131.82 15.0513 133.105 15.7472 135.119 16.6169C136.855 17.3823 137.723 18.2173 137.723 19.122C137.723 20.3743 136.82 21.0007 135.015 21.0007C133.244 21.0007 131.612 20.27 130.119 18.8784ZM144.285 25.0364H150.222L149.528 23.0184V7.71056L150.187 5.65811H144.25L144.945 7.71056V23.0184L144.285 25.0364ZM160.812 5.55356C155.569 5.55356 152.375 10.5982 152.375 15.3296C152.375 19.9569 155.43 25.1406 160.812 25.1406C166.193 25.1406 169.249 19.9569 169.249 15.3296C169.249 10.7373 166.193 5.55356 160.812 5.55356ZM156.611 15.3296C156.611 13.0336 157.895 9.38044 160.812 9.38044C163.694 9.38044 165.013 13.0683 165.013 15.3296C165.013 17.6259 163.694 21.3138 160.812 21.3138C157.93 21.3138 156.611 17.6259 156.611 15.3296ZM181.783 25.0364H186.922L186.227 23.0184V7.71056L186.956 5.65811H180.915L181.609 7.71056V15.1558L176.61 5.65811H171.263L172.027 7.71056V23.0184L171.297 25.0364H177.304L176.61 23.0184L176.575 15.0863L181.783 25.0364ZM198.622 18.8784L197.719 24.0274C199.803 24.9666 203.726 25.5232 205.914 24.8623C206.955 24.5493 207.858 23.9926 208.691 23.1577C210.011 21.8704 210.67 20.3047 210.67 18.4956C210.67 15.8865 209.004 13.8337 205.74 12.4074C204.525 11.9203 203.622 11.5374 202.997 11.2939C202.511 11.0854 202.268 10.7373 202.268 10.2852C202.268 9.58925 202.719 9.24142 203.622 9.24142C205.08 9.24142 206.469 9.90232 207.823 11.1896L208.657 6.42325C206.226 5.65811 202.025 4.82288 199.664 6.59731C198.449 7.50176 197.824 8.85857 197.824 10.5982C197.824 12.2681 198.449 13.5902 199.664 14.5644C200.324 15.0513 201.608 15.7472 203.622 16.6169C205.358 17.3823 206.226 18.2173 206.226 19.122C206.226 20.3743 205.323 21.0007 203.518 21.0007C201.747 21.0007 200.115 20.27 198.622 18.8784ZM212.788 25.0364H218.725L218.031 23.0184V7.71056L218.691 5.65811H212.753L213.448 7.71056V23.0184L212.788 25.0364ZM236.155 15.0863H231.155L231.815 17.104V21.0354C230.01 21.418 228.135 21.0354 226.885 19.5046C225.982 18.3913 225.531 16.9997 225.531 15.3296C225.531 12.651 226.572 10.7723 228.621 9.65875C230.287 8.85857 232.475 9.27619 234.037 10.3199L234.766 6.17998C231.016 5.06644 226.919 5.24049 223.899 7.95412C219.767 11.8158 219.871 18.8086 223.864 22.7401C225.426 24.2362 227.371 25.0364 229.662 25.1406C231.537 25.2101 233.1 24.723 234.35 24.1664L236.155 25.1406V15.0863ZM238.62 25.0364H244.557L243.863 23.0184V20.8961H248.967V23.0184L248.307 25.0364H254.244L253.585 23.0184V7.71056L254.21 5.65811H248.272L248.967 7.71056V18.113H243.863V7.71056L244.523 5.65811H238.585L239.28 7.71056V23.0184L238.62 25.0364ZM269.591 9.45023L271.188 10.2504V5.65811H256.675V10.4589L258.307 9.45023H261.64V23.0184L260.911 25.0364H266.848L266.223 22.9836V9.45023H269.591Z" fill="white" stroke="white" stroke-width="0.283929"/>
</mask>
<g mask="url(#mask1_76_1137)">
<path d="M273.145 3.57465H82.8165V27.1125H273.145V3.57465Z" fill="white"/>
</g>
<mask id="mask2_76_1137" style="mask-type:luminance" maskUnits="userSpaceOnUse" x="83" y="33" width="127" height="14">
<path d="M209.1 33.8607H83.7214V46.5189H209.1V33.8607Z" fill="black"/>
<path d="M91.4208 45.3388H90.5182L87.4418 40.9344C87.2427 40.9529 87.0044 40.9622 86.7267 40.9622C86.2868 40.9622 85.9071 40.9483 85.5877 40.9205V45.3388H84.7822V35.1454C85.5647 35.0062 86.317 34.9366 87.0392 34.9366C88.2334 34.9366 89.1257 35.1848 89.7161 35.6812C90.3063 36.1774 90.6014 36.9196 90.6014 37.9077C90.6107 38.6916 90.4162 39.3271 90.0182 39.8142C89.6201 40.3013 89.0275 40.633 88.2404 40.8093L91.4208 45.3388ZM86.6918 40.2596C87.775 40.2596 88.5667 40.0705 89.0667 39.6923C89.5667 39.3142 89.8167 38.724 89.8167 37.9216C89.8167 37.1424 89.5992 36.5684 89.1641 36.1996C88.7288 35.8306 88.0298 35.6462 87.0669 35.6462C86.5345 35.6462 86.0414 35.6856 85.5877 35.7646V40.2176C86.0229 40.2456 86.391 40.2596 86.6918 40.2596ZM94.233 40.4195V44.6014H98.8649V45.3388H93.4275V35.0409H98.7953V35.7785H94.233V39.6818H98.1565V40.4195H94.233ZM104.274 45.4642C103.436 45.4642 102.729 45.296 102.153 44.9597C101.577 44.6233 101.133 44.0679 100.823 43.2933C100.513 42.5187 100.358 41.4888 100.358 40.2037C100.358 38.9374 100.514 37.9146 100.827 37.1353C101.139 36.3561 101.59 35.7913 102.181 35.4411C102.771 35.0909 103.503 34.9158 104.378 34.9158C105.003 34.9158 105.619 35.0039 106.226 35.1802V35.9245C105.906 35.8225 105.599 35.7519 105.306 35.7125C105.012 35.6729 104.698 35.6531 104.365 35.6531C103.656 35.6531 103.073 35.7935 102.615 36.0742C102.156 36.3549 101.808 36.8269 101.57 37.4901C101.331 38.1535 101.212 39.0488 101.212 40.1759C101.212 41.3264 101.332 42.2356 101.573 42.9035C101.814 43.5715 102.161 44.0424 102.615 44.3162C103.068 44.5897 103.638 44.7265 104.323 44.7265C104.633 44.7265 104.939 44.6987 105.239 44.6431C105.54 44.5875 105.869 44.4971 106.226 44.3718V45.1233C105.596 45.3505 104.946 45.4642 104.274 45.4642ZM111.073 45.4642C109.943 45.4642 109.071 45.0478 108.458 44.2151C107.845 43.3826 107.538 42.0408 107.538 40.1898C107.538 38.339 107.845 36.9973 108.458 36.1645C109.071 35.332 109.943 34.9158 111.073 34.9158C112.202 34.9158 113.072 35.332 113.684 36.1645C114.295 36.9973 114.6 38.339 114.6 40.1898C114.6 42.0408 114.295 43.3826 113.684 44.2151C113.072 45.0478 112.202 45.4642 111.073 45.4642ZM111.073 44.7335C111.642 44.7335 112.123 44.5932 112.517 44.3127C112.91 44.0319 113.215 43.5599 113.43 42.8965C113.645 42.2333 113.753 41.3427 113.753 40.2246C113.753 39.0835 113.645 38.1766 113.43 37.504C113.215 36.8315 112.91 36.3538 112.517 36.0707C112.123 35.7877 111.642 35.6462 111.073 35.6462C110.498 35.6462 110.015 35.7865 109.621 36.0672C109.228 36.348 108.923 36.8199 108.708 37.4831C108.493 38.1465 108.385 39.0372 108.385 40.1551C108.385 41.2963 108.493 42.2032 108.708 42.8756C108.923 43.5483 109.228 44.0262 109.621 44.3092C110.015 44.5921 110.498 44.7335 111.073 44.7335ZM123.627 45.3388H122.725L119.648 40.9344C119.449 40.9529 119.211 40.9622 118.933 40.9622C118.493 40.9622 118.114 40.9483 117.794 40.9205V45.3388H116.989V35.1454C117.771 35.0062 118.524 34.9366 119.246 34.9366C120.44 34.9366 121.332 35.1848 121.923 35.6812C122.513 36.1774 122.808 36.9196 122.808 37.9077C122.817 38.6916 122.623 39.3271 122.225 39.8142C121.827 40.3013 121.234 40.633 120.447 40.8093L123.627 45.3388ZM118.898 40.2596C119.982 40.2596 120.773 40.0705 121.273 39.6923C121.773 39.3142 122.023 38.724 122.023 37.9216C122.023 37.1424 121.806 36.5684 121.37 36.1996C120.935 35.8306 120.236 35.6462 119.274 35.6462C118.741 35.6462 118.248 35.6856 117.794 35.7646V40.2176C118.23 40.2456 118.598 40.2596 118.898 40.2596ZM127.509 45.4225C126.972 45.4225 126.347 45.3853 125.634 45.311V35.1454C126.394 35.0062 127.093 34.9366 127.731 34.9366C129.217 34.9366 130.325 35.3646 131.054 36.2205C131.783 37.0762 132.148 38.3993 132.148 40.1898C132.148 41.4145 131.974 42.4118 131.627 43.1818C131.28 43.9519 130.765 44.5179 130.082 44.8797C129.399 45.2415 128.541 45.4225 127.509 45.4225ZM127.634 44.6848C128.467 44.6848 129.152 44.5352 129.689 44.2359C130.227 43.9369 130.629 43.4579 130.898 42.7992C131.166 42.1404 131.301 41.2706 131.301 40.1898C131.301 39.1183 131.173 38.2509 130.919 37.5877C130.664 36.9243 130.278 36.4383 129.759 36.1298C129.241 35.8215 128.574 35.6673 127.759 35.6673C127.366 35.6673 126.926 35.702 126.44 35.7716V44.6223C126.768 44.664 127.167 44.6848 127.634 44.6848ZM143.411 35.0409H144.251L140.994 40.6908V45.3388H140.182V40.6978L136.87 35.0409H137.765L140.599 39.9115L143.411 35.0409ZM148.529 45.4642C147.399 45.4642 146.528 45.0478 145.915 44.2151C145.301 43.3826 144.994 42.0408 144.994 40.1898C144.994 38.339 145.301 36.9973 145.915 36.1645C146.528 35.332 147.399 34.9158 148.529 34.9158C149.659 34.9158 150.529 35.332 151.14 36.1645C151.751 36.9973 152.057 38.339 152.057 40.1898C152.057 42.0408 151.751 43.3826 151.14 44.2151C150.529 45.0478 149.659 45.4642 148.529 45.4642ZM148.529 44.7335C149.098 44.7335 149.58 44.5932 149.973 44.3127C150.367 44.0319 150.671 43.5599 150.886 42.8965C151.102 42.2333 151.209 41.3427 151.209 40.2246C151.209 39.0835 151.102 38.1766 150.886 37.504C150.671 36.8315 150.367 36.3538 149.973 36.0707C149.58 35.7877 149.098 35.6462 148.529 35.6462C147.955 35.6462 147.471 35.7865 147.078 36.0672C146.684 36.348 146.38 36.8199 146.165 37.4831C145.949 38.1465 145.842 39.0372 145.842 40.1551C145.842 41.2963 145.949 42.2032 146.165 42.8756C146.38 43.5483 146.684 44.0262 147.078 44.3092C147.471 44.5921 147.955 44.7335 148.529 44.7335ZM157.626 45.4642C156.876 45.4642 156.262 45.3331 155.786 45.0709C155.309 44.8089 154.957 44.4088 154.73 43.8707C154.503 43.3326 154.39 42.6415 154.39 41.7971V35.0409H155.202V41.9017C155.202 42.8757 155.393 43.5913 155.775 44.0483C156.157 44.5051 156.774 44.7335 157.626 44.7335C158.477 44.7335 159.094 44.5051 159.476 44.0483C159.858 43.5913 160.049 42.8757 160.049 41.9017V35.0409H160.841V41.7971C160.841 42.6415 160.728 43.3326 160.504 43.8707C160.279 44.4088 159.931 44.8089 159.459 45.0709C158.987 45.3331 158.376 45.4642 157.626 45.4642ZM170.687 45.4642C169.849 45.4642 169.142 45.296 168.566 44.9597C167.99 44.6233 167.546 44.0679 167.236 43.2933C166.926 42.5187 166.771 41.4888 166.771 40.2037C166.771 38.9374 166.927 37.9146 167.24 37.1353C167.552 36.3561 168.004 35.7913 168.594 35.4411C169.184 35.0909 169.917 34.9158 170.792 34.9158C171.417 34.9158 172.032 35.0039 172.639 35.1802V35.9245C172.319 35.8225 172.013 35.7519 171.719 35.7125C171.425 35.6729 171.111 35.6531 170.778 35.6531C170.069 35.6531 169.486 35.7935 169.028 36.0742C168.569 36.3549 168.221 36.8269 167.983 37.4901C167.744 38.1535 167.625 39.0488 167.625 40.1759C167.625 41.3264 167.746 42.2356 167.986 42.9035C168.227 43.5715 168.574 44.0424 169.028 44.3162C169.481 44.5897 170.051 44.7265 170.736 44.7265C171.046 44.7265 171.352 44.6987 171.653 44.6431C171.954 44.5875 172.282 44.4971 172.639 44.3718V45.1233C172.009 45.3505 171.359 45.4642 170.687 45.4642ZM179.777 45.3388H174.534V35.0409H175.34V44.5875H179.777V45.3388ZM182.367 45.3388H181.562V35.0409H182.367V45.3388ZM185.992 40.4195V44.6014H190.624V45.3388H185.187V35.0409H190.555V35.7785H185.992V39.6818H189.916V40.4195H185.992ZM198.547 43.968V35.0409H199.318V45.3388H198.464L193.409 36.4116V45.3388H192.638V35.0409H193.492L198.547 43.968ZM204.991 45.3388H204.179V35.7924H201.123V35.0409H208.047V35.7924H204.991V45.3388Z" fill="white" stroke="white" stroke-width="0.283929"/>
</mask>
<g mask="url(#mask2_76_1137)">
<path d="M209.1 33.8607H83.7214V46.5189H209.1V33.8607Z" fill="white"/>
</g>
</g>
<defs>
<clipPath id="clip0_76_1137">
<rect width="273.146" height="51" fill="white"/>
</clipPath>
</defs>
</svg>
