<svg width="282" height="59" viewBox="0 0 282 59" fill="none" xmlns="http://www.w3.org/2000/svg">
<g clip-path="url(#clip0_76_1037)" filter="url(#filter0_d_76_1037)">
<mask id="mask0_76_1037" style="mask-type:luminance" maskUnits="userSpaceOnUse" x="3" y="-1" width="71" height="53">
<path d="M73.1367 -0.000732422H3.9986V51.0001H73.1367V-0.000732422Z" fill="black"/>
<path d="M65.9046 0.424561H11.2351C7.4744 0.424561 4.42529 3.4703 4.42529 7.22688V43.7757C4.42529 47.5323 7.4744 50.578 11.2351 50.578H65.9054C69.6662 50.578 72.7153 47.5323 72.7153 43.7757V7.22688C72.7144 3.46945 69.6653 0.424561 65.9046 0.424561ZM65.9046 43.7757H11.2351V7.22688H65.9054L65.9046 43.7757Z" fill="white"/>
<path d="M28.0376 39.6126C28.5645 39.9162 29.1519 40.0684 29.7401 40.0684C30.3274 40.0684 30.9156 39.9162 31.4425 39.6126L50.8046 28.4466C51.8584 27.8395 52.5071 26.7163 52.5071 25.5012C52.5071 24.2861 51.8584 23.1629 50.8046 22.5558L31.4425 11.3898C30.3896 10.7818 29.0906 10.7818 28.0376 11.3898C26.9838 11.9969 26.3351 13.1201 26.3351 14.3352V36.6672C26.3351 37.8823 26.9838 39.0055 28.0376 39.6126ZM33.145 20.226L42.2923 25.5012L33.145 30.7764V20.226Z" fill="white"/>
</mask>
<g mask="url(#mask0_76_1037)">
<path d="M73.1367 -0.000732422H3.9986V51.0001H73.1367V-0.000732422Z" fill="#6C63FF"/>
</g>
<mask id="mask1_76_1037" style="mask-type:luminance" maskUnits="userSpaceOnUse" x="87" y="3" width="191" height="25">
<path d="M277.999 3.57471H87.0753V27.1126H277.999V3.57471Z" fill="black"/>
<path d="M89.9444 18.8784L89.039 24.0274C91.1288 24.9666 95.0643 25.5232 97.2588 24.8623C98.3034 24.5493 99.2091 23.9926 100.045 23.1577C101.369 21.8704 102.03 20.3047 102.03 18.4956C102.03 15.8865 100.358 13.8337 97.0845 12.4074C95.8654 11.9203 94.9599 11.5374 94.3331 11.2939C93.8454 11.0854 93.6016 10.7373 93.6016 10.2852C93.6016 9.58925 94.0545 9.24142 94.9599 9.24142C96.4226 9.24142 97.816 9.90232 99.1743 11.1896L100.01 6.42325C97.5722 5.65811 93.3578 4.82288 90.9893 6.59731C89.7705 7.50176 89.1434 8.85857 89.1434 10.5982C89.1434 12.2681 89.7705 13.5902 90.9893 14.5644C91.6513 15.0513 92.9397 15.7472 94.9599 16.6169C96.7012 17.3823 97.5722 18.2173 97.5722 19.122C97.5722 20.3743 96.6664 21.0007 94.8555 21.0007C93.0792 21.0007 91.4422 20.27 89.9444 18.8784ZM115.405 25.0364L116.206 20.5136L114.603 21.2439H109.449V17.2433H112.757L114.394 17.7301V13.9033L112.792 14.4599H109.449V9.41548H113.907L115.962 10.1111V5.65811H104.12L104.851 7.71056V23.0184L104.155 25.0364H115.405ZM119.549 18.8784L118.644 24.0274C120.733 24.9666 124.669 25.5232 126.863 24.8623C127.908 24.5493 128.814 23.9926 129.65 23.1577C130.973 21.8704 131.635 20.3047 131.635 18.4956C131.635 15.8865 129.963 13.8337 126.689 12.4074C125.47 11.9203 124.565 11.5374 123.937 11.2939C123.45 11.0854 123.206 10.7373 123.206 10.2852C123.206 9.58925 123.659 9.24142 124.565 9.24142C126.027 9.24142 127.42 9.90232 128.779 11.1896L129.615 6.42325C127.177 5.65811 122.962 4.82288 120.594 6.59731C119.375 7.50176 118.748 8.85857 118.748 10.5982C118.748 12.2681 119.375 13.5902 120.594 14.5644C121.256 15.0513 122.544 15.7472 124.565 16.6169C126.306 17.3823 127.177 18.2173 127.177 19.122C127.177 20.3743 126.271 21.0007 124.46 21.0007C122.684 21.0007 121.047 20.27 119.549 18.8784ZM134.526 18.8784L133.62 24.0274C135.71 24.9666 139.645 25.5232 141.84 24.8623C142.885 24.5493 143.79 23.9926 144.626 23.1577C145.949 21.8704 146.611 20.3047 146.611 18.4956C146.611 15.8865 144.939 13.8337 141.665 12.4074C140.447 11.9203 139.541 11.5374 138.914 11.2939C138.426 11.0854 138.182 10.7373 138.182 10.2852C138.182 9.58925 138.635 9.24142 139.541 9.24142C141.004 9.24142 142.397 9.90232 143.755 11.1896L144.591 6.42325C142.153 5.65811 137.939 4.82288 135.571 6.59731C134.351 7.50176 133.725 8.85857 133.725 10.5982C133.725 12.2681 134.351 13.5902 135.571 14.5644C136.232 15.0513 137.521 15.7472 139.541 16.6169C141.282 17.3823 142.153 18.2173 142.153 19.122C142.153 20.3743 141.248 21.0007 139.436 21.0007C137.66 21.0007 136.023 20.27 134.526 18.8784ZM148.736 25.0364H154.692L153.995 23.0184V7.71056L154.657 5.65811H148.701L149.398 7.71056V23.0184L148.736 25.0364ZM165.314 5.55356C160.055 5.55356 156.851 10.5982 156.851 15.3296C156.851 19.9569 159.916 25.1406 165.314 25.1406C170.713 25.1406 173.778 19.9569 173.778 15.3296C173.778 10.7373 170.713 5.55356 165.314 5.55356ZM161.1 15.3296C161.1 13.0336 162.389 9.38044 165.314 9.38044C168.205 9.38044 169.529 13.0683 169.529 15.3296C169.529 17.6259 168.205 21.3138 165.314 21.3138C162.423 21.3138 161.1 17.6259 161.1 15.3296ZM186.351 25.0364H191.506L190.809 23.0184V7.71056L191.54 5.65811H185.48L186.177 7.71056V15.1558L181.162 5.65811H175.798L176.564 7.71056V23.0184L175.833 25.0364H181.858L181.162 23.0184L181.127 15.0863L186.351 25.0364ZM203.243 18.8784L202.337 24.0274C204.427 24.9666 208.363 25.5232 210.557 24.8623C211.602 24.5493 212.507 23.9926 213.343 23.1577C214.667 21.8704 215.329 20.3047 215.329 18.4956C215.329 15.8865 213.657 13.8337 210.383 12.4074C209.164 11.9203 208.258 11.5374 207.631 11.2939C207.144 11.0854 206.9 10.7373 206.9 10.2852C206.9 9.58925 207.353 9.24142 208.258 9.24142C209.721 9.24142 211.114 9.90232 212.473 11.1896L213.309 6.42325C210.871 5.65811 206.656 4.82288 204.288 6.59731C203.069 7.50176 202.442 8.85857 202.442 10.5982C202.442 12.2681 203.069 13.5902 204.288 14.5644C204.95 15.0513 206.238 15.7472 208.258 16.6169C210 17.3823 210.871 18.2173 210.871 19.122C210.871 20.3743 209.965 21.0007 208.154 21.0007C206.377 21.0007 204.741 20.27 203.243 18.8784ZM217.453 25.0364H223.409L222.712 23.0184V7.71056L223.374 5.65811H217.418L218.115 7.71056V23.0184L217.453 25.0364ZM240.893 15.0863H235.878L236.539 17.104V21.0354C234.728 21.418 232.848 21.0354 231.594 19.5046C230.688 18.3913 230.235 16.9997 230.235 15.3296C230.235 12.651 231.28 10.7723 233.335 9.65875C235.007 8.85857 237.201 9.27619 238.768 10.3199L239.5 6.17998C235.738 5.06644 231.629 5.24049 228.598 7.95412C224.454 11.8158 224.558 18.8086 228.564 22.7401C230.131 24.2362 232.081 25.0364 234.38 25.1406C236.261 25.2101 237.828 24.723 239.082 24.1664L240.893 25.1406V15.0863ZM243.366 25.0364H249.322L248.625 23.0184V20.8961H253.745V23.0184L253.083 25.0364H259.039L258.377 23.0184V7.71056L259.004 5.65811H253.048L253.745 7.71056V18.113H248.625V7.71056L249.287 5.65811H243.331L244.028 7.71056V23.0184L243.366 25.0364ZM274.433 9.45023L276.035 10.2504V5.65811H261.477V10.4589L263.114 9.45023H266.457V23.0184L265.726 25.0364H271.682L271.055 22.9836V9.45023H274.433Z" fill="white" stroke="white" stroke-width="0.283929"/>
</mask>
<g mask="url(#mask1_76_1037)">
<path d="M277.999 3.57471H87.0753V27.1126H277.999V3.57471Z" fill="#6C63FF"/>
</g>
<mask id="mask2_76_1037" style="mask-type:luminance" maskUnits="userSpaceOnUse" x="87" y="33" width="127" height="14">
<path d="M213.753 33.8606H87.9831V46.5188H213.753V33.8606Z" fill="black"/>
<path d="M95.7065 45.3385H94.801L91.715 40.9342C91.5154 40.9527 91.2763 40.962 90.9978 40.962C90.5565 40.962 90.1756 40.9481 89.8551 40.9202V45.3385H89.0471V35.1452C89.8321 35.006 90.5867 34.9364 91.3112 34.9364C92.5092 34.9364 93.4043 35.1846 93.9965 35.681C94.5885 36.1772 94.8845 36.9193 94.8845 37.9075C94.8938 38.6913 94.6988 39.3268 94.2995 39.814C93.9001 40.3011 93.3057 40.6328 92.5161 40.809L95.7065 45.3385ZM90.9627 40.2594C92.0493 40.2594 92.8434 40.0703 93.345 39.692C93.8466 39.314 94.0974 38.7238 94.0974 37.9214C94.0974 37.1421 93.8792 36.5681 93.4427 36.1994C93.0061 35.8304 92.3049 35.6459 91.339 35.6459C90.805 35.6459 90.3103 35.6854 89.8551 35.7644V40.2174C90.2918 40.2454 90.661 40.2594 90.9627 40.2594ZM98.5275 40.4192V44.6012H103.174V45.3385H97.7195V35.0406H103.104V35.7783H98.5275V39.6816H102.463V40.4192H98.5275ZM108.6 45.4639C107.76 45.4639 107.05 45.2958 106.472 44.9594C105.894 44.6231 105.449 44.0676 105.138 43.293C104.827 42.5184 104.671 41.4886 104.671 40.2035C104.671 38.9371 104.828 37.9143 105.142 37.1351C105.455 36.3558 105.908 35.7911 106.5 35.4409C107.092 35.0906 107.827 34.9155 108.705 34.9155C109.332 34.9155 109.949 35.0037 110.558 35.1799V35.9242C110.237 35.8223 109.929 35.7516 109.635 35.7122C109.34 35.6727 109.025 35.6529 108.691 35.6529C107.98 35.6529 107.395 35.7932 106.935 36.074C106.476 36.3547 106.126 36.8266 105.887 37.4898C105.648 38.1532 105.528 39.0485 105.528 40.1757C105.528 41.3262 105.649 42.2354 105.891 42.9032C106.132 43.5712 106.48 44.0421 106.935 44.3159C107.39 44.5895 107.962 44.7263 108.649 44.7263C108.96 44.7263 109.267 44.6985 109.568 44.6429C109.87 44.5873 110.2 44.4968 110.558 44.3715V45.123C109.926 45.3503 109.274 45.4639 108.6 45.4639ZM115.42 45.4639C114.287 45.4639 113.412 45.0476 112.797 44.2148C112.182 43.3823 111.874 42.0406 111.874 40.1896C111.874 38.3388 112.182 36.997 112.797 36.1643C113.412 35.3318 114.287 34.9155 115.42 34.9155C116.553 34.9155 117.426 35.3318 118.039 36.1643C118.652 36.997 118.958 38.3388 118.958 40.1896C118.958 42.0406 118.652 43.3823 118.039 44.2148C117.426 45.0476 116.553 45.4639 115.42 45.4639ZM115.42 44.7332C115.991 44.7332 116.474 44.593 116.868 44.3124C117.263 44.0317 117.569 43.5596 117.785 42.8962C118 42.233 118.108 41.3424 118.108 40.2243C118.108 39.0833 118 38.1764 117.785 37.5037C117.569 36.8313 117.263 36.3535 116.868 36.0705C116.474 35.7874 115.991 35.6459 115.42 35.6459C114.844 35.6459 114.359 35.7863 113.964 36.067C113.569 36.3477 113.264 36.8197 113.048 37.4829C112.832 38.1463 112.724 39.0369 112.724 40.1548C112.724 41.2961 112.832 42.2029 113.048 42.8754C113.264 43.5481 113.569 44.0259 113.964 44.309C114.359 44.5918 114.844 44.7332 115.42 44.7332ZM128.014 45.3385H127.108L124.022 40.9342C123.823 40.9527 123.584 40.962 123.305 40.962C122.864 40.962 122.483 40.9481 122.162 40.9202V45.3385H121.354V35.1452C122.139 35.006 122.894 34.9364 123.619 34.9364C124.816 34.9364 125.712 35.1846 126.304 35.681C126.896 36.1772 127.192 36.9193 127.192 37.9075C127.201 38.6913 127.006 39.3268 126.607 39.814C126.207 40.3011 125.613 40.6328 124.823 40.809L128.014 45.3385ZM123.27 40.2594C124.357 40.2594 125.151 40.0703 125.652 39.692C126.154 39.314 126.405 38.7238 126.405 37.9214C126.405 37.1421 126.186 36.5681 125.75 36.1994C125.313 35.8304 124.612 35.6459 123.646 35.6459C123.112 35.6459 122.618 35.6854 122.162 35.7644V40.2174C122.599 40.2454 122.968 40.2594 123.27 40.2594ZM131.908 45.4222C131.369 45.4222 130.742 45.385 130.027 45.3107V35.1452C130.789 35.006 131.49 34.9364 132.131 34.9364C133.621 34.9364 134.732 35.3643 135.464 36.2202C136.195 37.0759 136.561 38.399 136.561 40.1896C136.561 41.4142 136.387 42.4115 136.038 43.1815C135.69 43.9517 135.174 44.5177 134.489 44.8795C133.804 45.2413 132.943 45.4222 131.908 45.4222ZM132.033 44.6846C132.869 44.6846 133.556 44.5349 134.095 44.2357C134.633 43.9366 135.038 43.4577 135.307 42.7989C135.576 42.1402 135.711 41.2704 135.711 40.1896C135.711 39.118 135.583 38.2506 135.328 37.5874C135.073 36.924 134.685 36.4381 134.165 36.1296C133.645 35.8212 132.976 35.6671 132.158 35.6671C131.764 35.6671 131.322 35.7018 130.835 35.7713V44.622C131.165 44.6637 131.564 44.6846 132.033 44.6846ZM147.859 35.0406H148.702L145.435 40.6906V45.3385H144.62V40.6975L141.297 35.0406H142.196L145.038 39.9113L147.859 35.0406ZM152.993 45.4639C151.86 45.4639 150.986 45.0476 150.371 44.2148C149.755 43.3823 149.447 42.0406 149.447 40.1896C149.447 38.3388 149.755 36.997 150.371 36.1643C150.986 35.3318 151.86 34.9155 152.993 34.9155C154.126 34.9155 154.999 35.3318 155.612 36.1643C156.225 36.997 156.532 38.3388 156.532 40.1896C156.532 42.0406 156.225 43.3823 155.612 44.2148C154.999 45.0476 154.126 45.4639 152.993 45.4639ZM152.993 44.7332C153.564 44.7332 154.047 44.593 154.442 44.3124C154.837 44.0317 155.142 43.5596 155.358 42.8962C155.574 42.233 155.682 41.3424 155.682 40.2243C155.682 39.0833 155.574 38.1764 155.358 37.5037C155.142 36.8313 154.837 36.3535 154.442 36.0705C154.047 35.7874 153.564 35.6459 152.993 35.6459C152.417 35.6459 151.932 35.7863 151.537 36.067C151.142 36.3477 150.837 36.8197 150.621 37.4829C150.405 38.1463 150.297 39.0369 150.297 40.1548C150.297 41.2961 150.405 42.2029 150.621 42.8754C150.837 43.5481 151.142 44.0259 151.537 44.309C151.932 44.5918 152.417 44.7332 152.993 44.7332ZM162.118 45.4639C161.366 45.4639 160.751 45.3328 160.272 45.0706C159.794 44.8086 159.441 44.4086 159.214 43.8705C158.986 43.3324 158.872 42.6412 158.872 41.7969V35.0406H159.687V41.9014C159.687 42.8755 159.879 43.591 160.262 44.048C160.645 44.5048 161.264 44.7332 162.118 44.7332C162.973 44.7332 163.591 44.5048 163.975 44.048C164.358 43.591 164.549 42.8755 164.549 41.9014V35.0406H165.343V41.7969C165.343 42.6412 165.231 43.3324 165.006 43.8705C164.78 44.4086 164.431 44.8086 163.957 45.0706C163.484 45.3328 162.871 45.4639 162.118 45.4639ZM175.221 45.4639C174.38 45.4639 173.671 45.2958 173.093 44.9594C172.515 44.6231 172.07 44.0676 171.759 43.293C171.448 42.5184 171.292 41.4886 171.292 40.2035C171.292 38.9371 171.449 37.9143 171.762 37.1351C172.076 36.3558 172.529 35.7911 173.121 35.4409C173.713 35.0906 174.448 34.9155 175.325 34.9155C175.952 34.9155 176.57 35.0037 177.178 35.1799V35.9242C176.858 35.8223 176.55 35.7516 176.255 35.7122C175.96 35.6727 175.646 35.6529 175.311 35.6529C174.601 35.6529 174.016 35.7932 173.556 36.074C173.096 36.3547 172.747 36.8266 172.508 37.4898C172.269 38.1532 172.149 39.0485 172.149 40.1757C172.149 41.3262 172.27 42.2354 172.511 42.9032C172.753 43.5712 173.101 44.0421 173.556 44.3159C174.011 44.5895 174.582 44.7263 175.27 44.7263C175.581 44.7263 175.887 44.6985 176.189 44.6429C176.491 44.5873 176.821 44.4968 177.178 44.3715V45.123C176.547 45.3503 175.894 45.4639 175.221 45.4639ZM184.339 45.3385H179.08V35.0406H179.888V44.5873H184.339V45.3385ZM186.937 45.3385H186.129V35.0406H186.937V45.3385ZM190.573 40.4192V44.6012H195.22V45.3385H189.765V35.0406H195.15V35.7783H190.573V39.6816H194.509V40.4192H190.573ZM203.168 43.9678V35.0406H203.941V45.3385H203.084L198.013 36.4113V45.3385H197.24V35.0406H198.097L203.168 43.9678ZM209.632 45.3385H208.817V35.7922H205.752V35.0406H212.697V35.7922H209.632V45.3385Z" fill="white" stroke="white" stroke-width="0.283929"/>
</mask>
<g mask="url(#mask2_76_1037)">
<path d="M213.753 33.8606H87.9831V46.5188H213.753V33.8606Z" fill="#6C63FF"/>
</g>
</g>
<defs>
<filter id="filter0_d_76_1037" x="0" y="0" width="282" height="59" filterUnits="userSpaceOnUse" color-interpolation-filters="sRGB">
<feFlood flood-opacity="0" result="BackgroundImageFix"/>
<feColorMatrix in="SourceAlpha" type="matrix" values="0 0 0 0 0 0 0 0 0 0 0 0 0 0 0 0 0 0 127 0" result="hardAlpha"/>
<feOffset dy="4"/>
<feGaussianBlur stdDeviation="2"/>
<feComposite in2="hardAlpha" operator="out"/>
<feColorMatrix type="matrix" values="0 0 0 0 0 0 0 0 0 0 0 0 0 0 0 0 0 0 0.25 0"/>
<feBlend mode="normal" in2="BackgroundImageFix" result="effect1_dropShadow_76_1037"/>
<feBlend mode="normal" in="SourceGraphic" in2="effect1_dropShadow_76_1037" result="shape"/>
</filter>
<clipPath id="clip0_76_1037">
<rect width="274" height="51" fill="white" transform="translate(4)"/>
</clipPath>
</defs>
</svg>
