<svg width="274" height="51" viewBox="0 0 274 51" fill="none" xmlns="http://www.w3.org/2000/svg">
<g clip-path="url(#clip0_71_260)">
<mask id="mask0_71_260" style="mask-type:luminance" maskUnits="userSpaceOnUse" x="-1" y="-1" width="71" height="53">
<path d="M69.1367 -0.000713348H-0.00140381V51.0002H69.1367V-0.000713348Z" fill="black"/>
<path d="M61.9046 0.424557H7.23514C3.4744 0.424557 0.425293 3.47029 0.425293 7.22687V43.7757C0.425293 47.5323 3.4744 50.578 7.23514 50.578H61.9054C65.6662 50.578 68.7153 47.5323 68.7153 43.7757V7.22687C68.7144 3.46944 65.6653 0.424557 61.9046 0.424557ZM61.9046 43.7757H7.23514V7.22687H61.9054L61.9046 43.7757Z" fill="white"/>
<path d="M24.0376 39.6127C24.5645 39.9163 25.1519 40.0685 25.7401 40.0685C26.3274 40.0685 26.9156 39.9163 27.4425 39.6127L46.8046 28.4467C47.8584 27.8396 48.5071 26.7164 48.5071 25.5013C48.5071 24.2862 47.8584 23.163 46.8046 22.5559L27.4425 11.3899C26.3896 10.7819 25.0906 10.7819 24.0376 11.3899C22.9838 11.997 22.3351 13.1202 22.3351 14.3353V36.6673C22.3351 37.8824 22.9838 39.0056 24.0376 39.6127ZM29.145 20.2261L38.2923 25.5013L29.145 30.7765V20.2261Z" fill="white"/>
</mask>
<g mask="url(#mask0_71_260)">
<path d="M69.1367 -0.000713348H-0.00140381V51.0002H69.1367V-0.000713348Z" fill="#6C63FF"/>
</g>
<mask id="mask1_71_260" style="mask-type:luminance" maskUnits="userSpaceOnUse" x="83" y="3" width="191" height="25">
<path d="M273.999 3.57463H83.0753V27.1125H273.999V3.57463Z" fill="black"/>
<path d="M85.9444 18.8784L85.039 24.0273C87.1288 24.9665 91.0643 25.5232 93.2588 24.8623C94.3034 24.5492 95.2091 23.9926 96.045 23.1576C97.3685 21.8703 98.0301 20.3047 98.0301 18.4955C98.0301 15.8864 96.3584 13.8337 93.0845 12.4074C91.8654 11.9203 90.9599 11.5374 90.3331 11.2938C89.8454 11.0853 89.6016 10.7372 89.6016 10.2851C89.6016 9.58921 90.0545 9.24139 90.9599 9.24139C92.4226 9.24139 93.816 9.90228 95.1743 11.1896L96.0102 6.42321C93.5722 5.65807 89.3578 4.82284 86.9893 6.59727C85.7705 7.50172 85.1434 8.85853 85.1434 10.5982C85.1434 12.2681 85.7705 13.5901 86.9893 14.5644C87.6513 15.0512 88.9397 15.7471 90.9599 16.6168C92.7012 17.3823 93.5722 18.2172 93.5722 19.122C93.5722 20.3742 92.6664 21.0006 90.8555 21.0006C89.0792 21.0006 87.4422 20.27 85.9444 18.8784ZM111.405 25.0363L112.206 20.5135L110.603 21.2439H105.449V17.2433H108.757L110.394 17.7301V13.9032L108.792 14.4598H105.449V9.41545H109.907L111.962 10.1111V5.65807H100.12L100.851 7.71052V23.0183L100.155 25.0363H111.405ZM115.549 18.8784L114.644 24.0273C116.733 24.9665 120.669 25.5232 122.863 24.8623C123.908 24.5492 124.814 23.9926 125.65 23.1576C126.973 21.8703 127.635 20.3047 127.635 18.4955C127.635 15.8864 125.963 13.8337 122.689 12.4074C121.47 11.9203 120.565 11.5374 119.937 11.2938C119.45 11.0853 119.206 10.7372 119.206 10.2851C119.206 9.58921 119.659 9.24139 120.565 9.24139C122.027 9.24139 123.42 9.90228 124.779 11.1896L125.615 6.42321C123.177 5.65807 118.962 4.82284 116.594 6.59727C115.375 7.50172 114.748 8.85853 114.748 10.5982C114.748 12.2681 115.375 13.5901 116.594 14.5644C117.256 15.0512 118.544 15.7471 120.565 16.6168C122.306 17.3823 123.177 18.2172 123.177 19.122C123.177 20.3742 122.271 21.0006 120.46 21.0006C118.684 21.0006 117.047 20.27 115.549 18.8784ZM130.526 18.8784L129.62 24.0273C131.71 24.9665 135.645 25.5232 137.84 24.8623C138.885 24.5492 139.79 23.9926 140.626 23.1576C141.949 21.8703 142.611 20.3047 142.611 18.4955C142.611 15.8864 140.939 13.8337 137.665 12.4074C136.447 11.9203 135.541 11.5374 134.914 11.2938C134.426 11.0853 134.182 10.7372 134.182 10.2851C134.182 9.58921 134.635 9.24139 135.541 9.24139C137.004 9.24139 138.397 9.90228 139.755 11.1896L140.591 6.42321C138.153 5.65807 133.939 4.82284 131.571 6.59727C130.351 7.50172 129.725 8.85853 129.725 10.5982C129.725 12.2681 130.351 13.5901 131.571 14.5644C132.232 15.0512 133.521 15.7471 135.541 16.6168C137.282 17.3823 138.153 18.2172 138.153 19.122C138.153 20.3742 137.248 21.0006 135.436 21.0006C133.66 21.0006 132.023 20.27 130.526 18.8784ZM144.736 25.0363H150.692L149.995 23.0183V7.71052L150.657 5.65807H144.701L145.398 7.71052V23.0183L144.736 25.0363ZM161.314 5.55352C156.055 5.55352 152.851 10.5982 152.851 15.3295C152.851 19.9569 155.916 25.1406 161.314 25.1406C166.713 25.1406 169.778 19.9569 169.778 15.3295C169.778 10.7372 166.713 5.55352 161.314 5.55352ZM157.1 15.3295C157.1 13.0335 158.389 9.3804 161.314 9.3804C164.205 9.3804 165.529 13.0683 165.529 15.3295C165.529 17.6258 164.205 21.3137 161.314 21.3137C158.423 21.3137 157.1 17.6258 157.1 15.3295ZM182.351 25.0363H187.506L186.809 23.0183V7.71052L187.54 5.65807H181.48L182.177 7.71052V15.1558L177.162 5.65807H171.798L172.564 7.71052V23.0183L171.833 25.0363H177.858L177.162 23.0183L177.127 15.0863L182.351 25.0363ZM199.243 18.8784L198.337 24.0273C200.427 24.9665 204.363 25.5232 206.557 24.8623C207.602 24.5492 208.507 23.9926 209.343 23.1576C210.667 21.8703 211.329 20.3047 211.329 18.4955C211.329 15.8864 209.657 13.8337 206.383 12.4074C205.164 11.9203 204.258 11.5374 203.631 11.2938C203.144 11.0853 202.9 10.7372 202.9 10.2851C202.9 9.58921 203.353 9.24139 204.258 9.24139C205.721 9.24139 207.114 9.90228 208.473 11.1896L209.309 6.42321C206.871 5.65807 202.656 4.82284 200.288 6.59727C199.069 7.50172 198.442 8.85853 198.442 10.5982C198.442 12.2681 199.069 13.5901 200.288 14.5644C200.95 15.0512 202.238 15.7471 204.258 16.6168C206 17.3823 206.871 18.2172 206.871 19.122C206.871 20.3742 205.965 21.0006 204.154 21.0006C202.377 21.0006 200.741 20.27 199.243 18.8784ZM213.453 25.0363H219.409L218.712 23.0183V7.71052L219.374 5.65807H213.418L214.115 7.71052V23.0183L213.453 25.0363ZM236.893 15.0863H231.878L232.539 17.104V21.0354C230.728 21.418 228.848 21.0354 227.594 19.5045C226.688 18.3913 226.235 16.9997 226.235 15.3295C226.235 12.6509 227.28 10.7723 229.335 9.65871C231.007 8.85853 233.201 9.27615 234.768 10.3199L235.5 6.17994C231.738 5.0664 227.629 5.24046 224.598 7.95409C220.454 11.8157 220.558 18.8086 224.564 22.74C226.131 24.2361 228.081 25.0363 230.38 25.1406C232.261 25.2101 233.828 24.723 235.082 24.1663L236.893 25.1406V15.0863ZM239.366 25.0363H245.322L244.625 23.0183V20.8961H249.745V23.0183L249.083 25.0363H255.039L254.377 23.0183V7.71052L255.004 5.65807H249.048L249.745 7.71052V18.113H244.625V7.71052L245.287 5.65807H239.331L240.028 7.71052V23.0183L239.366 25.0363ZM270.433 9.4502L272.035 10.2504V5.65807H257.477V10.4589L259.114 9.4502H262.457V23.0183L261.726 25.0363H267.682L267.055 22.9836V9.4502H270.433Z" fill="white" stroke="white" stroke-width="0.283929"/>
</mask>
<g mask="url(#mask1_71_260)">
<path d="M273.999 3.57463H83.0753V27.1125H273.999V3.57463Z" fill="#6C63FF"/>
</g>
<mask id="mask2_71_260" style="mask-type:luminance" maskUnits="userSpaceOnUse" x="83" y="33" width="127" height="14">
<path d="M209.753 33.8607H83.9831V46.5189H209.753V33.8607Z" fill="black"/>
<path d="M91.7065 45.3387H90.801L87.715 40.9344C87.5154 40.9529 87.2763 40.9622 86.9978 40.9622C86.5565 40.9622 86.1756 40.9483 85.8551 40.9205V45.3387H85.0471V35.1454C85.8321 35.0062 86.5867 34.9366 87.3112 34.9366C88.5092 34.9366 89.4043 35.1848 89.9965 35.6812C90.5885 36.1774 90.8845 36.9195 90.8845 37.9077C90.8938 38.6916 90.6988 39.3271 90.2995 39.8142C89.9001 40.3013 89.3057 40.633 88.5161 40.8093L91.7065 45.3387ZM86.9627 40.2596C88.0493 40.2596 88.8434 40.0705 89.345 39.6922C89.8466 39.3142 90.0974 38.724 90.0974 37.9216C90.0974 37.1423 89.8792 36.5683 89.4427 36.1996C89.0061 35.8306 88.3049 35.6461 87.339 35.6461C86.805 35.6461 86.3103 35.6856 85.8551 35.7646V40.2176C86.2918 40.2456 86.661 40.2596 86.9627 40.2596ZM94.5275 40.4194V44.6014H99.1739V45.3387H93.7195V35.0408H99.104V35.7785H94.5275V39.6818H98.4633V40.4194H94.5275ZM104.6 45.4641C103.76 45.4641 103.05 45.296 102.472 44.9596C101.894 44.6233 101.449 44.0678 101.138 43.2932C100.827 42.5186 100.671 41.4888 100.671 40.2037C100.671 38.9373 100.828 37.9145 101.142 37.1353C101.455 36.3561 101.908 35.7913 102.5 35.4411C103.092 35.0908 103.827 34.9157 104.705 34.9157C105.332 34.9157 105.949 35.0039 106.558 35.1801V35.9244C106.237 35.8225 105.929 35.7518 105.635 35.7124C105.34 35.6729 105.025 35.6531 104.691 35.6531C103.98 35.6531 103.395 35.7934 102.935 36.0742C102.476 36.3549 102.126 36.8269 101.887 37.4901C101.648 38.1535 101.528 39.0487 101.528 40.1759C101.528 41.3264 101.649 42.2356 101.891 42.9034C102.132 43.5715 102.48 44.0424 102.935 44.3161C103.39 44.5897 103.962 44.7265 104.649 44.7265C104.96 44.7265 105.267 44.6987 105.568 44.6431C105.87 44.5875 106.2 44.497 106.558 44.3717V45.1233C105.926 45.3505 105.274 45.4641 104.6 45.4641ZM111.42 45.4641C110.287 45.4641 109.412 45.0478 108.797 44.2151C108.182 43.3825 107.874 42.0408 107.874 40.1898C107.874 38.339 108.182 36.9972 108.797 36.1645C109.412 35.332 110.287 34.9157 111.42 34.9157C112.553 34.9157 113.426 35.332 114.039 36.1645C114.652 36.9972 114.958 38.339 114.958 40.1898C114.958 42.0408 114.652 43.3825 114.039 44.2151C113.426 45.0478 112.553 45.4641 111.42 45.4641ZM111.42 44.7334C111.991 44.7334 112.474 44.5932 112.868 44.3126C113.263 44.0319 113.569 43.5599 113.785 42.8965C114 42.2333 114.108 41.3426 114.108 40.2245C114.108 39.0835 114 38.1766 113.785 37.504C113.569 36.8315 113.263 36.3537 112.868 36.0707C112.474 35.7876 111.991 35.6461 111.42 35.6461C110.844 35.6461 110.359 35.7865 109.964 36.0672C109.569 36.3479 109.264 36.8199 109.048 37.4831C108.832 38.1465 108.724 39.0372 108.724 40.155C108.724 41.2963 108.832 42.2031 109.048 42.8756C109.264 43.5483 109.569 44.0261 109.964 44.3092C110.359 44.592 110.844 44.7334 111.42 44.7334ZM124.014 45.3387H123.108L120.022 40.9344C119.823 40.9529 119.584 40.9622 119.305 40.9622C118.864 40.9622 118.483 40.9483 118.162 40.9205V45.3387H117.354V35.1454C118.139 35.0062 118.894 34.9366 119.619 34.9366C120.816 34.9366 121.712 35.1848 122.304 35.6812C122.896 36.1774 123.192 36.9195 123.192 37.9077C123.201 38.6916 123.006 39.3271 122.607 39.8142C122.207 40.3013 121.613 40.633 120.823 40.8093L124.014 45.3387ZM119.27 40.2596C120.357 40.2596 121.151 40.0705 121.652 39.6922C122.154 39.3142 122.405 38.724 122.405 37.9216C122.405 37.1423 122.186 36.5683 121.75 36.1996C121.313 35.8306 120.612 35.6461 119.646 35.6461C119.112 35.6461 118.618 35.6856 118.162 35.7646V40.2176C118.599 40.2456 118.968 40.2596 119.27 40.2596ZM127.908 45.4224C127.369 45.4224 126.742 45.3853 126.027 45.3109V35.1454C126.789 35.0062 127.49 34.9366 128.131 34.9366C129.621 34.9366 130.732 35.3645 131.464 36.2204C132.195 37.0761 132.561 38.3992 132.561 40.1898C132.561 41.4145 132.387 42.4118 132.038 43.1817C131.69 43.9519 131.174 44.5179 130.489 44.8797C129.804 45.2415 128.943 45.4224 127.908 45.4224ZM128.033 44.6848C128.869 44.6848 129.556 44.5352 130.095 44.2359C130.633 43.9368 131.038 43.4579 131.307 42.7991C131.576 42.1404 131.711 41.2706 131.711 40.1898C131.711 39.1182 131.583 38.2509 131.328 37.5877C131.073 36.9243 130.685 36.4383 130.165 36.1298C129.645 35.8214 128.976 35.6673 128.158 35.6673C127.764 35.6673 127.322 35.702 126.835 35.7715V44.6222C127.165 44.6639 127.564 44.6848 128.033 44.6848ZM143.859 35.0408H144.702L141.435 40.6908V45.3387H140.62V40.6978L137.297 35.0408H138.196L141.038 39.9115L143.859 35.0408ZM148.993 45.4641C147.86 45.4641 146.986 45.0478 146.371 44.2151C145.755 43.3825 145.447 42.0408 145.447 40.1898C145.447 38.339 145.755 36.9972 146.371 36.1645C146.986 35.332 147.86 34.9157 148.993 34.9157C150.126 34.9157 150.999 35.332 151.612 36.1645C152.225 36.9972 152.532 38.339 152.532 40.1898C152.532 42.0408 152.225 43.3825 151.612 44.2151C150.999 45.0478 150.126 45.4641 148.993 45.4641ZM148.993 44.7334C149.564 44.7334 150.047 44.5932 150.442 44.3126C150.837 44.0319 151.142 43.5599 151.358 42.8965C151.574 42.2333 151.682 41.3426 151.682 40.2245C151.682 39.0835 151.574 38.1766 151.358 37.504C151.142 36.8315 150.837 36.3537 150.442 36.0707C150.047 35.7876 149.564 35.6461 148.993 35.6461C148.417 35.6461 147.932 35.7865 147.537 36.0672C147.142 36.3479 146.837 36.8199 146.621 37.4831C146.405 38.1465 146.297 39.0372 146.297 40.155C146.297 41.2963 146.405 42.2031 146.621 42.8756C146.837 43.5483 147.142 44.0261 147.537 44.3092C147.932 44.592 148.417 44.7334 148.993 44.7334ZM158.118 45.4641C157.366 45.4641 156.751 45.333 156.272 45.0709C155.794 44.8089 155.441 44.4088 155.214 43.8707C154.986 43.3326 154.872 42.6414 154.872 41.7971V35.0408H155.687V41.9017C155.687 42.8757 155.879 43.5912 156.262 44.0482C156.645 44.5051 157.264 44.7334 158.118 44.7334C158.973 44.7334 159.591 44.5051 159.975 44.0482C160.358 43.5912 160.549 42.8757 160.549 41.9017V35.0408H161.343V41.7971C161.343 42.6414 161.231 43.3326 161.006 43.8707C160.78 44.4088 160.431 44.8089 159.957 45.0709C159.484 45.333 158.871 45.4641 158.118 45.4641ZM171.221 45.4641C170.38 45.4641 169.671 45.296 169.093 44.9596C168.515 44.6233 168.07 44.0678 167.759 43.2932C167.448 42.5186 167.292 41.4888 167.292 40.2037C167.292 38.9373 167.449 37.9145 167.762 37.1353C168.076 36.3561 168.529 35.7913 169.121 35.4411C169.713 35.0908 170.448 34.9157 171.325 34.9157C171.952 34.9157 172.57 35.0039 173.178 35.1801V35.9244C172.858 35.8225 172.55 35.7518 172.255 35.7124C171.96 35.6729 171.646 35.6531 171.311 35.6531C170.601 35.6531 170.016 35.7934 169.556 36.0742C169.096 36.3549 168.747 36.8269 168.508 37.4901C168.269 38.1535 168.149 39.0487 168.149 40.1759C168.149 41.3264 168.27 42.2356 168.511 42.9034C168.753 43.5715 169.101 44.0424 169.556 44.3161C170.011 44.5897 170.582 44.7265 171.27 44.7265C171.581 44.7265 171.887 44.6987 172.189 44.6431C172.491 44.5875 172.821 44.497 173.178 44.3717V45.1233C172.547 45.3505 171.894 45.4641 171.221 45.4641ZM180.339 45.3387H175.08V35.0408H175.888V44.5875H180.339V45.3387ZM182.937 45.3387H182.129V35.0408H182.937V45.3387ZM186.573 40.4194V44.6014H191.22V45.3387H185.765V35.0408H191.15V35.7785H186.573V39.6818H190.509V40.4194H186.573ZM199.168 43.968V35.0408H199.941V45.3387H199.084L194.013 36.4116V45.3387H193.24V35.0408H194.097L199.168 43.968ZM205.632 45.3387H204.817V35.7924H201.752V35.0408H208.697V35.7924H205.632V45.3387Z" fill="white" stroke="white" stroke-width="0.283929"/>
</mask>
<g mask="url(#mask2_71_260)">
<path d="M209.753 33.8607H83.9831V46.5189H209.753V33.8607Z" fill="#6C63FF"/>
</g>
</g>
<defs>
<clipPath id="clip0_71_260">
<rect width="274" height="51" fill="white"/>
</clipPath>
</defs>
</svg>
